<?xml version="1.0" encoding="utf-8"?>
<!-- Generator: Adobe Illustrator 26.0.1, SVG Export Plug-In . SVG Version: 6.00 Build 0)  -->
<svg version="1.1" id="Слой_1" xmlns="http://www.w3.org/2000/svg" xmlns:xlink="http://www.w3.org/1999/xlink" x="0px" y="0px"
	 viewBox="0 0 44.2 32.7" style="enable-background:new 0 0 44.2 32.7;" xml:space="preserve">
<path d="M39.3,0H4.8C2.2,0,0,2.2,0,4.8v23c0,2.7,2.2,4.8,4.8,4.8h34.5c2.7,0,4.8-2.2,4.8-4.8v-23C44.2,2.2,42,0,39.3,0z M4.8,2h34.5
	c1.6,0,2.8,1.3,2.8,2.8v6.7H2V4.8C2,3.3,3.3,2,4.8,2z M39.3,30.7H4.8c-1.6,0-2.8-1.3-2.8-2.8V13.5h40.2v14.3
	C42.2,29.4,40.9,30.7,39.3,30.7z"/>
</svg>
