<?xml version="1.0" encoding="utf-8"?>
<!-- Generator: Adobe Illustrator 26.0.1, SVG Export Plug-In . SVG Version: 6.00 Build 0)  -->
<svg version="1.1" id="Слой_1" xmlns="http://www.w3.org/2000/svg" xmlns:xlink="http://www.w3.org/1999/xlink" x="0px" y="0px"
	 viewBox="0 0 34.6 34.6" style="enable-background:new 0 0 34.6 34.6;" xml:space="preserve">
<path d="M33.9,13.7L1.4,0.1C1,0,0.6,0,0.3,0.3C0,0.6,0,1,0.1,1.4l13.6,32.5c0.2,0.4,0.5,0.6,0.9,0.6c0,0,0,0,0,0
	c0.4,0,0.8-0.3,0.9-0.7l4.3-12.6L31,32.4c0.2,0.2,0.5,0.3,0.7,0.3s0.5-0.1,0.7-0.3c0.4-0.4,0.4-1,0-1.4L21.2,19.8l12.6-4.3
	c0.4-0.1,0.7-0.5,0.7-0.9C34.6,14.2,34.3,13.8,33.9,13.7z M19.1,18.5c-0.3,0.1-0.5,0.3-0.6,0.6l-4,11.7L2.9,2.9l27.8,11.6L19.1,18.5
	z"/>
</svg>
