<?xml version="1.0" encoding="utf-8"?>
<!-- Generator: Adobe Illustrator 26.0.1, SVG Export Plug-In . SVG Version: 6.00 Build 0)  -->
<svg version="1.1" id="Слой_1" xmlns="http://www.w3.org/2000/svg" xmlns:xlink="http://www.w3.org/1999/xlink" x="0px" y="0px"
	 viewBox="0 0 46 46" style="enable-background:new 0 0 46 46;" xml:space="preserve">
<path d="M45.4,19.3c-0.2-0.8-0.6-1.5-1.1-2.1c-0.5-0.6-1.2-1.1-1.9-1.4c-0.7-0.3-1.5-0.5-2.3-0.5H28.9V7.7c0-2.1-0.8-4-2.3-5.4
	C25.1,0.8,23.2,0,21.2,0c-0.5,0-0.9,0.3-1,0.7l-8.4,19H5.9c-1.5,0-2.9,0.6-3.9,1.6c-1,1-1.6,2.4-1.6,3.9v15.3c0,1.5,0.6,2.9,1.6,3.9
	S4.4,46,5.9,46h31.2c0,0,0,0,0.1,0c1.3,0,2.6-0.5,3.6-1.3c1-0.9,1.7-2.1,1.9-3.4l3-19.7C45.7,20.9,45.7,20.1,45.4,19.3z M11.3,43.7
	H5.9c-0.9,0-1.7-0.3-2.3-0.9c-0.6-0.6-0.9-1.4-0.9-2.3V25.2c0-0.9,0.3-1.7,0.9-2.3C4.2,22.3,5,22,5.9,22h5.4V43.7z M43.3,21.3
	l-3,19.7c-0.1,0.8-0.5,1.5-1.1,2c-0.6,0.5-1.3,0.8-2.1,0.8H13.6V21.1l8.3-18.7C23.1,2.5,24.1,3,25,3.9c1,1,1.6,2.4,1.6,3.8v8.7
	c0,0.6,0.5,1.1,1.1,1.1h12.4c0.4,0,0.9,0.1,1.4,0.3c0.4,0.2,0.8,0.5,1.1,0.8c0.3,0.4,0.5,0.8,0.7,1.2C43.4,20.4,43.4,20.9,43.3,21.3
	z"/>
</svg>
