<?xml version="1.0" encoding="utf-8"?>
<!-- Generator: Adobe Illustrator 26.0.1, SVG Export Plug-In . SVG Version: 6.00 Build 0)  -->
<svg version="1.1" id="Слой_1" xmlns="http://www.w3.org/2000/svg" xmlns:xlink="http://www.w3.org/1999/xlink" x="0px" y="0px"
	 viewBox="0 0 34.6 34.6" style="enable-background:new 0 0 34.6 34.6;" xml:space="preserve">
<g>
	<path d="M17.3,0C7.8,0,0,7.8,0,17.3c0,9.5,7.8,17.3,17.3,17.3s17.3-7.8,17.3-17.3C34.6,7.8,26.8,0,17.3,0z M17.3,32.9
		c-8.6,0-15.6-7-15.6-15.6c0-8.6,7-15.6,15.6-15.6c8.6,0,15.6,7,15.6,15.6C32.9,25.9,25.9,32.9,17.3,32.9z"/>
	<path d="M23.2,20.1c0,0-2.3,2.9-5.9,2.9c-3.6,0-5.9-2.9-5.9-2.9c-0.3-0.4-0.8-0.5-1.2-0.2c-0.4,0.3-0.5,0.8-0.2,1.2
		c0.1,0.1,2.8,3.6,7.3,3.6s7.2-3.5,7.3-3.6c0.3-0.4,0.2-0.9-0.2-1.2C24,19.6,23.5,19.7,23.2,20.1z"/>
	<path d="M12.4,13.7c0.7,0,1.3-0.6,1.3-1.3s-0.6-1.3-1.3-1.3h0c-0.7,0-1.3,0.6-1.3,1.3S11.7,13.7,12.4,13.7z"/>
	<path d="M22.2,13.7c0.7,0,1.3-0.6,1.3-1.3s-0.6-1.3-1.3-1.3h0c-0.7,0-1.3,0.6-1.3,1.3S21.5,13.7,22.2,13.7z"/>
</g>
</svg>
