<?xml version="1.0" encoding="utf-8"?>
<!-- Generator: Adobe Illustrator 26.0.1, SVG Export Plug-In . SVG Version: 6.00 Build 0)  -->
<svg version="1.1" id="Слой_1" xmlns="http://www.w3.org/2000/svg" xmlns:xlink="http://www.w3.org/1999/xlink" x="0px" y="0px"
	 viewBox="0 0 46 46" style="enable-background:new 0 0 46 46;" xml:space="preserve">
<g>
	<path d="M23,12c-6.1,0-11,4.9-11,11c0,6.1,4.9,11,11,11s11-4.9,11-11C34,16.9,29.1,12,23,12z M23,31.9c-4.9,0-8.9-4-8.9-8.9
		c0-4.9,4-8.9,8.9-8.9c4.9,0,8.9,4,8.9,8.9C31.9,27.9,27.9,31.9,23,31.9z"/>
	<path d="M23,6.1c0.6,0,1-0.5,1-1V1c0-0.6-0.5-1-1-1c-0.6,0-1,0.5-1,1v4C22,5.6,22.4,6.1,23,6.1z"/>
	<path d="M23,39.9c-0.6,0-1,0.5-1,1v4c0,0.6,0.5,1,1,1c0.6,0,1-0.5,1-1v-4C24,40.4,23.6,39.9,23,39.9z"/>
	<path d="M8.2,6.7c-0.4-0.4-1.1-0.4-1.5,0c-0.4,0.4-0.4,1.1,0,1.5L9.6,11c0.2,0.2,0.5,0.3,0.7,0.3c0.3,0,0.5-0.1,0.7-0.3
		c0.4-0.4,0.4-1.1,0-1.5L8.2,6.7z"/>
	<path d="M36.4,35c-0.4-0.4-1.1-0.4-1.5,0c-0.4,0.4-0.4,1.1,0,1.5l2.8,2.8c0.2,0.2,0.5,0.3,0.7,0.3s0.5-0.1,0.7-0.3
		c0.4-0.4,0.4-1.1,0-1.5L36.4,35z"/>
	<path d="M5,22H1c-0.6,0-1,0.5-1,1c0,0.6,0.5,1,1,1h4c0.6,0,1-0.5,1-1C6.1,22.4,5.6,22,5,22z"/>
	<path d="M45,22h-4c-0.6,0-1,0.5-1,1c0,0.6,0.5,1,1,1h4c0.6,0,1-0.5,1-1C46,22.4,45.5,22,45,22z"/>
	<path d="M9.6,35l-2.8,2.8c-0.4,0.4-0.4,1.1,0,1.5c0.2,0.2,0.5,0.3,0.7,0.3c0.3,0,0.5-0.1,0.7-0.3l2.8-2.8c0.4-0.4,0.4-1.1,0-1.5
		C10.6,34.6,10,34.6,9.6,35z"/>
	<path d="M37.8,6.7L35,9.6c-0.4,0.4-0.4,1.1,0,1.5c0.2,0.2,0.5,0.3,0.7,0.3s0.5-0.1,0.7-0.3l2.8-2.8c0.4-0.4,0.4-1.1,0-1.5
		C38.9,6.3,38.2,6.3,37.8,6.7z"/>
</g>
</svg>
