<?xml version="1.0" encoding="utf-8"?>
<!-- Generator: Adobe Illustrator 26.0.1, SVG Export Plug-In . SVG Version: 6.00 Build 0)  -->
<svg version="1.1" id="Слой_1" xmlns="http://www.w3.org/2000/svg" xmlns:xlink="http://www.w3.org/1999/xlink" x="0px" y="0px"
	 viewBox="0 0 46 46" style="enable-background:new 0 0 46 46;" xml:space="preserve">
<path d="M23.2,45.9c-1.1,0-2.3,0-3.5,0c-0.8,0-1.5,0-2.2,0c-0.3,0-0.6-0.1-0.8-0.4c-0.2-0.2-0.3-0.5-0.2-0.8c0.2-1,0.2-2.6-0.3-3
	S15,40.6,14.4,40c-0.5-0.5-1.1-1-1.5-1.4l-0.1-0.1l-2.4-2.6l0,0C10,35.3,9.5,34.6,9,33.6c-0.6-1-1.3-2.2-2.2-3.5
	c-0.4-0.6-1-1.3-1.7-2.1c-1-1.3-2.1-2.6-2.6-3.5C1.7,23,1.8,22.2,2,21c0.4-2.4,2.7-4.1,5.2-3.9c1.7,0.2,3.1,1.2,4.4,2.3
	c0.5,0.4,1.1,1.1,1.6,1.7c-0.1-0.9-0.3-1.8-0.5-2.7c-0.3-1.4-0.4-1.7-0.7-2.6l-0.1-0.5c-0.2-0.9-0.4-1.6-0.6-2.4
	c-0.1-0.4-0.2-0.8-0.3-1.3c-0.3-1-0.7-3.1-0.8-4.3c-0.3-2.9,0-4.9,1-6.1c1.1-1.3,3.4-1.7,4.9-0.9c1.7,0.8,2.6,2.9,3.1,4l0.1,0.2
	c0.7,1.5,1.1,3.3,1.6,5.9c0.1,0.5,0.2,1.1,0.3,1.7c0.4-0.5,1-1,1.7-1.2c1.1-0.3,2.2-0.4,3.1-0.2c1.2,0.2,2.4,1,2.9,1.9
	c0.1,0.2,0.2,0.4,0.3,0.6c0.6-0.9,1.8-1.6,2.6-1.7c1.1-0.2,2.2-0.2,3.1,0c1.1,0.2,2.2,1.3,2.6,1.8c0.3,0.5,0.5,1.2,0.7,2.1
	c1-1,2.6-1.4,4-1c0.8,0.2,2.7,1,2.8,4c0,1.7,0,1.9,0,2.6v0.5c0,1.4,0,2.4-0.1,3.5c-0.1,0.9-0.3,3.8-0.7,5.2c-0.3,1-1.1,3-2,4.3
	c0,0,0,0.1-0.1,0.1c-1.2,1.4-3,3.8-3.2,4.8c-0.2,1.1-0.2,1.4-0.2,1.9c0,0.2,0,0.4,0,0.8c0,0.8,0.2,2,0.3,2.3s0,0.6-0.1,0.8
	c-0.2,0.2-0.4,0.4-0.7,0.4s-2.5,0.3-3.8,0.1c-1.8-0.3-3.4-3.3-3.6-3.6c0-0.1-0.1-0.1-0.1-0.1s-0.1,0-0.1,0.1c-0.6,1-2.2,3.5-3.8,3.7
	C25.8,45.9,24.6,45.9,23.2,45.9z M18.6,43.8c0.4,0,0.7,0,1.1,0c2.6,0,5.2,0.1,6.7-0.1c0.4-0.1,1.4-1.2,2.3-2.7
	c0.4-0.7,1.1-1.1,1.9-1.1s1.4,0.5,1.8,1.2c0.6,1.2,1.7,2.5,2.1,2.6c0.6,0.1,1.4,0.1,2.2,0c-0.1-0.6-0.2-1.2-0.1-1.8
	c0-0.3,0-0.5,0-0.7c0-0.6,0-1,0.3-2.2c0.4-1.7,3-4.9,3.6-5.6c0.7-1,1.5-2.8,1.7-3.6c0.3-1,0.5-3.2,0.7-4.8c0.1-1.1,0.1-2,0.1-3.4
	v-0.5c0-0.7,0-0.9-0.1-2.5c0-0.8-0.3-1.9-1.3-2.1c-0.8-0.2-1.9,0.1-2.3,0.8c-0.3,0.5-0.5,1.2-0.6,1.6c-0.1,0.3-0.3,1.1-1.2,1.1
	c-0.5,0-0.9-0.5-0.9-1c-0.2-2.1-0.6-3.8-0.9-4.3c-0.2-0.2-0.9-0.9-1.3-1c-0.7-0.1-1.6-0.1-2.4,0c-0.3,0-1,0.5-1.3,0.9
	c-0.3,0.5-0.4,1.7-0.5,2.6c-0.1,0.6-0.1,1.2-0.2,1.6c-0.1,0.5-0.5,0.8-1.1,0.8c-0.9-0.1-0.9-0.9-1-1.2c-0.1-2.2-0.5-3.7-0.9-4.5
	c-0.2-0.3-0.8-0.8-1.5-1c-0.6-0.1-1.4-0.1-2.1,0.1c-0.6,0.2-1.1,0.9-1.2,1.5c-0.1,0.5,0,1.5,0,2.3c0,0.7,0.1,1.4,0,1.9
	c0,0.5-0.5,0.9-1,0.9s-1-0.4-1-1c0-0.4-0.3-2-0.6-3.6c-0.3-1.4-0.5-2.9-0.7-4.2c-0.4-2.4-0.8-4-1.4-5.4l-0.1-0.2
	c-0.4-0.8-1.1-2.5-2.1-3c-0.7-0.4-2-0.2-2.5,0.4C12.2,3.3,12,5,12.3,7.2c0.1,1,0.5,3,0.8,4.1c0.1,0.5,0.2,0.9,0.3,1.3
	c0.2,0.8,0.3,1.5,0.6,2.3l0.1,0.5c0.2,0.8,0.4,1.3,0.7,2.7c0.5,2,0.8,4.3,1,5.8v0.3c0.1,0.5,0.3,1.3-0.5,1.7
	c-0.8,0.4-1.3-0.3-1.6-0.8c-0.1-0.1-0.2-0.3-0.3-0.4c-0.2-0.3-0.4-0.5-0.5-0.7c-0.2-0.2-0.3-0.4-0.6-0.8L12,22.8
	c-0.5-0.6-1.1-1.4-1.6-1.8c-1.2-1-2.3-1.7-3.4-1.9C5.6,19,4.2,20,4,21.3c-0.1,0.9-0.2,1.2,0.3,2.2c0.4,0.7,1.5,2,2.4,3.2
	C7.4,27.5,8,28.3,8.4,29c1,1.4,1.7,2.6,2.3,3.7c0.5,0.9,0.9,1.5,1.2,2l2.3,2.6c0.4,0.4,1,0.9,1.5,1.4c0.6,0.6,1.3,1.2,1.7,1.6
	C18.6,41,18.7,42.7,18.6,43.8z"/>
<path d="M34.9,37.2c-0.6,0-1-0.4-1-1v-9.9c0-0.6,0.4-1,1-1s1,0.4,1,1v9.9C35.9,36.8,35.4,37.2,34.9,37.2z"/>
<path d="M29.1,37.3c-0.5,0-1-0.4-1-1v-10c0-0.6,0.4-1,1-1l0,0c0.5,0,1,0.4,1,1v10C30.1,36.8,29.6,37.3,29.1,37.3L29.1,37.3z"/>
<path d="M23.4,37.2c-0.5,0-1-0.4-1-1l-0.1-9.8c0-0.6,0.4-1,1-1l0,0c0.5,0,1,0.4,1,1l0.1,9.8C24.4,36.8,24,37.2,23.4,37.2L23.4,37.2z
	"/>
</svg>
