<?xml version="1.0" encoding="utf-8"?>
<!-- Generator: Adobe Illustrator 24.0.2, SVG Export Plug-In . SVG Version: 6.00 Build 0)  -->
<svg version="1.1" id="Слой_1" xmlns="http://www.w3.org/2000/svg" xmlns:xlink="http://www.w3.org/1999/xlink" x="0px" y="0px"
	 viewBox="0 0 200 200" style="enable-background:new 0 0 200 200;" xml:space="preserve">
<style type="text/css">
	.st0{fill:#0C2F26;}
</style>
<g>
	<path class="st0" d="M83.9,43c-0.4,4.4-0.7,8.6-0.9,12.8c-0.2,4.1-0.2,7.2-0.2,9.4c0,2,0.1,4,0.2,5.9c0.1,1.9,0.2,3.4,0.3,4.7h-3.7
		c-0.9-7.4-2.2-13.2-4.2-17.4c-1.9-4.2-4.5-7.2-7.8-9c-3.3-1.8-7.5-2.6-12.8-2.6H46c-3.2,0-5.7,0.3-7.4,0.8
		c-1.7,0.5-2.9,1.7-3.5,3.4c-0.6,1.7-0.9,4.3-0.9,7.9v82.1c0,3.4,0.3,6,0.9,7.8c0.6,1.8,1.7,2.9,3.5,3.5c1.7,0.5,4.2,0.8,7.4,0.8
		h9.1c5.4,0,10-1,13.7-3c3.7-2,6.7-5.4,8.9-10c2.2-4.7,3.9-11,5-19.2h3.7c-0.3,3.3-0.5,7.6-0.5,12.8c0,2.2,0.1,5.5,0.2,9.8
		c0.2,4.3,0.5,8.7,0.9,13.3c-5.5-0.2-11.6-0.3-18.4-0.4c-6.8-0.1-12.9-0.1-18.3-0.1c-3.4,0-8,0-13.8,0s-11.9,0-18.4,0.1
		c-6.5,0.1-12.5,0.2-18.2,0.4v-3.2c3.5-0.2,6.2-0.6,7.9-1.3c1.8-0.6,2.9-1.9,3.5-3.9c0.6-1.9,0.9-4.8,0.9-8.7V60
		c0-4-0.3-6.9-0.9-8.7s-1.8-3.2-3.5-3.9c-1.8-0.7-4.4-1.1-7.9-1.2V43c5.7,0.1,11.7,0.2,18.2,0.3c6.5,0.1,12.6,0.2,18.4,0.2
		s10.4,0,13.8,0c4.9,0,10.5,0,16.8-0.1C73.4,43.3,79,43.2,83.9,43z M58.1,97.8v3.2H29.5v-3.2H58.1z M62.7,76.7
		c-0.4,6.1-0.6,10.7-0.6,14c0.1,3.2,0.1,6.2,0.1,8.8c0,2.7,0.1,5.6,0.2,8.8c0.1,3.2,0.4,7.9,0.8,14h-3.7c-0.5-3.6-1.4-7.1-2.5-10.3
		c-1.1-3.3-2.9-5.9-5.3-7.9c-2.4-2-5.9-3-10.3-3v-3.2c4.5,0,7.9-1.2,10.2-3.5c2.3-2.4,4-5.2,5.1-8.5c1.1-3.3,1.9-6.4,2.4-9.1H62.7z"
		/>
	<path class="st0" d="M200,43v3.2c-2.1,0.8-4.5,2.4-7.1,5.1c-2.6,2.6-4.9,6.7-6.9,12.3L150.9,157c-0.6,0-1.3,0-2-0.1
		c-0.7-0.1-1.4-0.1-2.2-0.1s-1.5,0-2.2,0.1c-0.7,0.1-1.4,0.1-2,0.1L102.3,56.5c-1.6-4-3.3-6.6-5.2-8c-1.9-1.4-3.6-2.1-5.2-2.2V43
		c2.8,0.1,6.2,0.2,10.2,0.3c4,0.1,7.9,0.2,11.8,0.2c4.7,0,9.1-0.1,13.2-0.2c4.1-0.1,7.4-0.2,9.9-0.3v3.2c-5.2,0.2-8.7,1.1-10.3,2.7
		c-1.6,1.6-1.3,5.2,0.8,10.7l29.5,75.9l-3,3.7L178,75.1c2.7-7.2,4-12.8,4-17s-1.2-7.2-3.5-9c-2.3-1.8-5.7-2.8-10.1-2.9V43
		c3.5,0.1,6.9,0.2,10,0.3c3.2,0.1,6.3,0.2,9.4,0.2c2.6,0,4.8-0.1,6.8-0.2C196.6,43.2,198.4,43.1,200,43z"/>
</g>
</svg>
