<?xml version="1.0" encoding="utf-8"?>
<!-- Generator: Adobe Illustrator 24.0.2, SVG Export Plug-In . SVG Version: 6.00 Build 0)  -->
<svg version="1.1" id="Слой_1" xmlns="http://www.w3.org/2000/svg" xmlns:xlink="http://www.w3.org/1999/xlink" x="0px" y="0px"
	 viewBox="0 0 135.9 98.3" style="enable-background:new 0 0 135.9 98.3;" xml:space="preserve">
<path d="M82,2L82,2c-2.6,2.6-2.6,6.9,0,9.5l31,31L6.6,42.5c-3.7,0-6.6,3-6.6,6.6l0,0c0,3.7,3,6.6,6.6,6.6l106.5,0l-31,31
	c-2.6,2.6-2.6,6.9,0,9.5l0,0c2.6,2.6,6.9,2.6,9.5,0L134,53.9c2.5-2.6,2.5-6.9-0.1-9.5L91.4,2C88.8-0.6,84.6-0.6,82,2z"/>
</svg>
