<?xml version="1.0" encoding="utf-8"?>
<!-- Generator: Adobe Illustrator 26.0.1, SVG Export Plug-In . SVG Version: 6.00 Build 0)  -->
<svg version="1.1" id="Слой_1" xmlns="http://www.w3.org/2000/svg" xmlns:xlink="http://www.w3.org/1999/xlink" x="0px" y="0px"
	 viewBox="0 0 24 18" style="enable-background:new 0 0 24 18;" xml:space="preserve">
<g>
	<path d="M23.9,8.6C23.7,8.2,19.5,0,12,0S0.3,8.2,0.1,8.6C0,8.8,0,9.2,0.1,9.4C0.3,9.8,4.5,18,12,18s11.7-8.2,11.9-8.6
		C24,9.2,24,8.8,23.9,8.6z M12,16c-5.4,0-8.9-5.4-9.9-7C3.1,7.4,6.6,2,12,2c5.4,0,8.9,5.4,9.9,7C20.9,10.6,17.4,16,12,16z"/>
	<path d="M12,5C9.8,5,8,6.8,8,9c0,2.2,1.8,4,4,4c2.2,0,4-1.8,4-4C16,6.8,14.2,5,12,5z M12,11c-1.1,0-2-0.9-2-2c0-1.1,0.9-2,2-2
		c1.1,0,2,0.9,2,2C14,10.1,13.1,11,12,11z"/>
</g>
</svg>
