<?xml version="1.0" encoding="utf-8"?>
<!-- Generator: Adobe Illustrator 26.0.1, SVG Export Plug-In . SVG Version: 6.00 Build 0)  -->
<svg version="1.1" id="Слой_1" xmlns="http://www.w3.org/2000/svg" xmlns:xlink="http://www.w3.org/1999/xlink" x="0px" y="0px"
	 viewBox="0 0 21.6 12.2" style="enable-background:new 0 0 21.6 12.2;" xml:space="preserve">
<g>
	<path d="M8.2,12.2l-1.9-0.5c0,0,0,0,0,0L7,8.7c0,0,0,0,0,0C5.8,8.3,4.8,7.7,3.8,6.9c0,0,0,0,0,0L1.6,9c0,0,0,0,0,0L0.2,7.6
		c0,0,0,0,0,0l2.2-2.2c0,0,0,0,0,0C1.2,4,0.3,2.2,0,0.4L2,0c0,0,0,0,0,0c0.8,4.2,4.4,7.4,8.9,7.4c4.4,0,8.1-3.2,8.9-7.4c0,0,0,0,0,0
		l2,0.4c-0.3,1.9-1.2,3.6-2.4,5.1c0,0,0,0,0,0l2.2,2.2c0,0,0,0,0,0L20,9c0,0,0,0,0,0l-2.2-2.2c0,0,0,0,0,0c-1,0.8-2.1,1.4-3.2,1.9
		c0,0,0,0,0,0l0.8,2.9c0,0,0,0,0,0l-1.9,0.5c0,0,0,0,0,0l-0.8-2.9c0,0,0,0,0,0c-1.2,0.2-2.5,0.2-3.7,0c0,0,0,0,0,0L8.2,12.2
		C8.2,12.2,8.2,12.2,8.2,12.2z"/>
</g>
</svg>
