<?xml version="1.0" encoding="utf-8"?>
<!-- Generator: Adobe Illustrator 24.0.2, SVG Export Plug-In . SVG Version: 6.00 Build 0)  -->
<svg version="1.1" id="Слой_1" xmlns="http://www.w3.org/2000/svg" xmlns:xlink="http://www.w3.org/1999/xlink" x="0px" y="0px"
	 viewBox="0 0 21 14" style="enable-background:new 0 0 21 14;" xml:space="preserve">
<path d="M20,7.7L20.7,7L20,6.3c0,0,0,0,0,0l-6-6c-0.4-0.4-1-0.4-1.4,0s-0.4,1,0,1.4L16.9,6H1.3c-0.6,0-1,0.4-1,1c0,0.6,0.4,1,1,1
	h15.6l-4.3,4.3c-0.4,0.4-0.4,1,0,1.4c0.2,0.2,0.5,0.3,0.7,0.3s0.5-0.1,0.7-0.3L20,7.7C20,7.7,20,7.7,20,7.7z"/>
</svg>
